<svg width="14" height="23" viewBox="0 0 14 23" fill="none" xmlns="http://www.w3.org/2000/svg">
<path d="M1.9867 22.997C1.52332 22.9978 1.07425 22.8644 0.717447 22.62C0.51663 22.4824 0.350631 22.3134 0.228957 22.1227C0.107283 21.932 0.032325 21.7233 0.00837596 21.5086C-0.0155731 21.2939 0.0119579 21.0774 0.0893915 20.8715C0.166825 20.6656 0.292638 20.4744 0.459629 20.3087L9.34443 11.5225L0.776945 2.71986C0.612207 2.55219 0.489185 2.35926 0.41495 2.15216C0.340715 1.94506 0.31673 1.72788 0.344374 1.51309C0.372019 1.29831 0.450746 1.09016 0.576033 0.900602C0.701321 0.711048 0.870697 0.543828 1.07443 0.408555C1.27962 0.259326 1.51992 0.146765 1.78024 0.0779357C2.04056 0.00910631 2.31529 -0.0145046 2.58717 0.0085837C2.85906 0.031672 3.12223 0.100961 3.36018 0.212104C3.59813 0.323246 3.80572 0.473841 3.96992 0.654439L13.5488 10.4898C13.8405 10.7831 14 11.151 14 11.5307C14 11.9104 13.8405 12.2783 13.5488 12.5716L3.63277 22.4069C3.43382 22.6053 3.18109 22.7621 2.8951 22.8646C2.6091 22.9672 2.29788 23.0125 1.9867 22.997Z" fill="white"/>
</svg>
